<svg width="44" height="45" viewBox="0 0 44 45" fill="none" xmlns="http://www.w3.org/2000/svg">
<g clip-path="url(#clip0_2_109)">
<mask id="mask0_2_109" style="mask-type:luminance" maskUnits="userSpaceOnUse" x="0" y="0" width="44" height="45">
<path d="M44 0H0V44.6769H44V0Z" fill="white"/>
</mask>
<g mask="url(#mask0_2_109)">
<path d="M26.33 4.75806L26.8852 22.7345L41.6353 13.2708L26.33 4.75806Z" fill="#333333"/>
<path d="M41.5308 32.0934V13.2003L20.395 26.8061V44.677H21.1064" fill="#494949"/>
<path d="M3.18878 31.3803L16.7153 22.7013L17.2245 39.1869L3.18878 31.3803Z" fill="url(#paint0_linear_2_109)"/>
<path d="M3.18878 31.3803L16.7153 22.7013L17.2245 39.1869L3.18878 31.3803Z" fill="url(#paint1_linear_2_109)"/>
<path d="M3.18878 31.3803L16.7153 22.7013L17.2245 39.1869L3.18878 31.3803Z" stroke="url(#paint2_linear_2_109)" stroke-width="0.846154"/>
<path d="M3.18878 31.3803L16.7153 22.7013L17.2245 39.1869L3.18878 31.3803Z" stroke="url(#paint3_linear_2_109)" stroke-width="0.846154"/>
<path d="M2.46906 12.5835V31.4764L23.6051 17.8884V0H22.8936" fill="url(#paint4_linear_2_109)"/>
<path d="M2.46906 12.5835V31.4764L23.6051 17.8884V0H22.8936" fill="url(#paint5_linear_2_109)"/>
</g>
</g>
<defs>
<linearGradient id="paint0_linear_2_109" x1="2.36496" y1="30.9305" x2="17.6704" y2="30.9305" gradientUnits="userSpaceOnUse">
<stop stop-color="#00AAFF"/>
<stop offset="1" stop-color="#8636F8"/>
</linearGradient>
<linearGradient id="paint1_linear_2_109" x1="10.0177" y1="39.919" x2="10.0177" y2="21.9421" gradientUnits="userSpaceOnUse">
<stop stop-color="white" stop-opacity="0.6"/>
<stop offset="0.1085" stop-color="white" stop-opacity="0.455"/>
<stop offset="0.4332" stop-color="white" stop-opacity="0.216"/>
<stop offset="0.6639" stop-color="white" stop-opacity="0.06"/>
<stop offset="0.775" stop-color="white" stop-opacity="0"/>
</linearGradient>
<linearGradient id="paint2_linear_2_109" x1="2.36496" y1="30.9305" x2="17.6704" y2="30.9305" gradientUnits="userSpaceOnUse">
<stop stop-color="#00AAFF"/>
<stop offset="1" stop-color="#8636F8"/>
</linearGradient>
<linearGradient id="paint3_linear_2_109" x1="10.0177" y1="39.919" x2="10.0177" y2="21.9421" gradientUnits="userSpaceOnUse">
<stop stop-color="white" stop-opacity="0.6"/>
<stop offset="0.1085" stop-color="white" stop-opacity="0.455"/>
<stop offset="0.4332" stop-color="white" stop-opacity="0.216"/>
<stop offset="0.6639" stop-color="white" stop-opacity="0.06"/>
<stop offset="0.775" stop-color="white" stop-opacity="0"/>
</linearGradient>
<linearGradient id="paint4_linear_2_109" x1="1.5926" y1="19.4169" x2="24.8932" y2="17.7235" gradientUnits="userSpaceOnUse">
<stop offset="0.0226" stop-color="#8636F8"/>
<stop offset="0.3484" stop-color="#F020B3"/>
<stop offset="0.6742" stop-color="#F8475E"/>
<stop offset="1" stop-color="#FF9421"/>
</linearGradient>
<linearGradient id="paint5_linear_2_109" x1="13.0371" y1="31.4764" x2="13.0371" y2="0" gradientUnits="userSpaceOnUse">
<stop stop-color="white" stop-opacity="0.6"/>
<stop offset="0.0842" stop-color="white" stop-opacity="0.455"/>
<stop offset="0.367" stop-color="white" stop-opacity="0.216"/>
<stop offset="0.568" stop-color="white" stop-opacity="0.06"/>
<stop offset="0.6648" stop-color="white" stop-opacity="0"/>
</linearGradient>
<clipPath id="clip0_2_109">
<rect width="44" height="44.6769" fill="white"/>
</clipPath>
</defs>
</svg>
